<svg width="446" height="610" viewBox="0 0 446 610" fill="none" xmlns="http://www.w3.org/2000/svg">
<path d="M190.384 304.045C198.092 301.214 205.928 298.898 213.765 296.711C244.272 302.97 275.575 304.359 306.516 300.828C268.64 310.1 229.229 311.196 190.898 304.045H190.384ZM154.799 302.629C150.432 298.898 145.935 295.296 141.953 291.436L156.213 279.728C167.45 284.038 178.897 287.774 190.513 290.921C178.694 294.266 166.875 298.126 155.185 302.629H154.799ZM306.516 281.529C275.929 277.974 244.974 279.277 214.793 285.389C206.956 283.201 199.377 280.757 191.669 278.055C229.774 271.171 268.895 272.355 306.516 281.529ZM238.815 291.05C269.223 285.113 300.261 283.081 331.181 285.003C242.284 216.812 148.376 122.633 65.003 130.61L204.644 241.258C244.365 246.291 282.556 259.757 316.665 280.757C275.647 265.292 232.01 257.994 188.2 259.271L67.8292 158.658C55.3858 159.424 43.211 162.614 31.9875 168.05L138.87 255.539L118.701 272.523L32.3729 200.344C21.0481 202.763 10.1404 206.838 0 212.438L95.1922 292.079L0.256788 370.434C10.5118 376.01 21.4948 380.124 32.8869 382.656C61.149 358.897 89.5823 335.095 118.187 311.25L138.227 328.233C139.769 327.332 32.3729 414.822 32.3729 414.822C43.6416 420.258 55.8582 423.448 68.3428 424.214L188.714 323.601C232.544 325.012 276.215 317.664 317.179 301.986C283.12 323.114 244.91 336.631 205.158 341.614L64.489 452.262C147.862 459.596 241.899 365.544 330.796 297.869C299.523 299.833 268.128 297.714 237.402 291.564L238.815 291.05ZM182.162 425.243V607.942C192.929 603.407 202.937 597.246 211.838 589.672V426.401C257.097 400.333 295.396 363.697 323.473 319.612C303.637 361.39 274.341 397.955 237.916 426.401L235.989 610C247.244 604.374 257.351 596.695 265.793 587.356V428.202C294.815 394.213 316.938 354.88 330.924 312.407C325.282 352.835 311.328 391.65 289.944 426.401L285.319 607.298C343.642 545.67 331.824 411.605 336.705 298.512C298.059 354.266 244.682 398.147 182.548 425.243H182.162ZM290.329 157.114C311.693 191.874 325.646 230.686 331.309 271.107C317.338 228.628 295.213 189.293 266.178 155.313V-4.35575C257.807 -13.7718 247.684 -21.4632 236.374 -27L238.301 156.47C274.697 184.947 303.986 221.504 323.859 263.259C295.817 219.145 257.51 182.501 212.223 156.47V-6.15699C203.259 -13.6089 193.263 -19.7196 182.548 -24.2982V158.4C244.648 185.49 298.016 229.319 336.705 285.003C331.824 171.395 343.642 37.2018 285.319 -23.7835L290.329 157.114ZM530.815 280.371C535.439 283.973 539.807 287.705 543.661 291.436L529.273 303.273C518.04 298.879 506.592 295.057 494.973 291.822C506.959 288.686 518.754 284.863 530.301 280.371H530.815ZM470.951 286.161C440.393 279.946 409.047 278.6 378.071 282.172C416.154 272.828 455.79 271.731 494.331 278.956C486.623 281.529 478.787 284.102 470.951 286.161ZM378.97 301.471C409.564 304.983 440.519 303.637 470.693 297.483C478.401 299.799 486.238 302.115 493.817 304.816C455.731 311.87 416.583 310.73 378.97 301.471ZM617.914 424.857C630.449 424.155 642.72 420.962 654.012 415.465L546.873 327.975L567.299 311.121C595.947 335.052 624.851 359.111 653.498 383.3C664.844 380.75 675.782 376.636 686 371.077L591.193 290.792L685.357 211.795C675.142 206.161 664.144 202.085 652.728 199.701C624.466 223.503 595.946 247.176 567.556 270.979L547.515 253.995C545.845 254.896 653.241 167.407 653.241 167.407C642.018 161.971 629.843 158.78 617.4 158.014C577.319 191.638 537.195 225.175 497.029 258.627C453.218 257.331 409.577 264.63 368.564 280.114C402.71 259.093 440.947 245.626 480.714 240.615L620.226 129.966C536.981 122.633 442.945 216.812 354.176 284.359C385.358 282.421 416.659 284.497 447.313 290.535C417.005 296.569 386.045 298.645 355.204 296.711C443.973 364.901 538.009 458.952 621.254 451.104L481.484 340.456C441.772 335.475 403.603 321.957 369.592 300.828C410.546 316.54 454.224 323.889 498.056 322.443L618.428 423.056L617.914 424.857ZM345.441 296.711C350.065 410.447 338.375 544.512 396.826 605.497L392.073 425.372C370.857 390.552 356.957 351.763 351.222 311.378C365.215 353.821 387.289 393.144 416.225 427.173V587.356C424.718 596.639 434.814 604.31 446.029 610L444.23 426.401C407.768 397.993 378.464 361.418 358.672 319.612C386.714 363.727 425.021 400.371 470.308 426.401V589.029C479.243 596.587 489.298 602.707 500.112 607.17V425.243C437.881 398.307 384.464 354.393 345.955 298.512L345.441 296.711ZM500.112 158.915V-24.2982C489.352 -19.7307 479.312 -13.6196 470.308 -6.15699V156.47C424.981 182.447 386.662 219.102 358.672 263.259C378.501 221.477 407.798 184.909 444.23 156.47L446.029 -27C434.782 -21.3617 424.676 -13.6839 416.225 -4.35575V155.055C387.276 189.074 365.2 228.401 351.222 270.85C356.957 230.465 370.857 191.676 392.073 156.856L396.826 -23.9123C338.632 37.5877 350.322 171.781 345.441 284.874C384.057 229.092 437.443 185.204 499.598 158.143" fill="white" fill-opacity="0.2"/>
</svg>
