<svg width="59" height="42" viewBox="0 0 59 42" fill="none" xmlns="http://www.w3.org/2000/svg">
<path d="M58.7808 21.4484C58.5594 20.9962 58.0117 20.8089 57.5585 21.0277L51.0863 24.1523L46.6758 26.0507C45.9951 25.8761 44.2561 25.4233 42.694 24.9633L41.9279 24.6796C41.8157 24.6384 41.7004 24.6214 41.5876 24.6245C41.0459 24.4505 40.575 24.2856 40.2579 24.1468C38.7367 23.4813 36.0187 21.9169 34.9232 20.9726C33.6857 19.9094 30.4615 15.9635 30.4291 15.9235C30.1553 15.5877 29.6813 15.4902 29.2958 15.6896C28.409 16.1484 25.5324 17.3588 24.0094 16.9188C23.2055 16.6812 21.7178 15.8702 21.297 15.3653C21.0164 15.0295 20.7773 13.8191 20.9035 13.4324C21.2323 13.2669 22.479 13.4766 23.0896 13.579C24.1344 13.7548 25.1226 13.9209 25.8856 13.6754C27.3714 13.1984 30.3675 10.6545 31.0897 10.029C31.8064 9.76894 35.3423 8.58457 37.8083 9.55922C39.1093 10.0738 40.3744 10.2514 41.5028 10.2514C43.9432 10.2514 45.7432 9.41799 45.8767 9.35435L54.865 4.58112C55.3102 4.34412 55.4786 3.79376 55.2407 3.35068C55.0022 2.90821 54.4484 2.74031 54.0025 2.97731L45.0545 7.72994C45.0234 7.74448 41.8407 9.19555 38.4847 7.86934C35.5619 6.71286 31.7698 7.86268 30.62 8.26393C29.3446 7.78327 25.7593 6.50859 24.1662 6.74862C22.6791 6.97531 18.3484 7.17836 16.5942 6.85651C15.8538 6.64861 10.2288 3.62404 5.3132 0.884357C4.8716 0.638876 4.31471 0.794651 4.06768 1.23288C3.82065 1.6705 3.97741 2.22511 4.41779 2.47059C7.63284 4.2629 15.2206 8.45062 16.2307 8.63791C18.3765 9.0331 22.9877 8.76762 24.4412 8.54639C25.1598 8.43789 27.1116 8.97189 28.8201 9.55255C27.5428 10.5908 26.018 11.7213 25.3226 11.9443C24.9847 12.0528 24.1033 11.9043 23.3946 11.7849C21.9447 11.5413 20.4461 11.2891 19.5677 12.1747C18.5875 13.1729 19.1749 15.6726 19.8874 16.5248C20.6223 17.4067 22.4796 18.3638 23.4928 18.6626C25.4641 19.2318 28.19 18.1965 29.4654 17.6237C30.4303 18.7869 32.6554 21.4272 33.7241 22.3454C35.0574 23.4953 38.0468 25.1651 39.5192 25.8094C40.0926 26.0604 41.0618 26.3743 42.0975 26.6817L46.3885 28.2703C46.6129 28.3855 46.7831 28.6 46.8947 28.9092C47.0887 29.4468 47.0497 30.1644 46.799 30.693C46.4928 31.3331 45.806 31.6664 45.1552 31.5731C45.0265 31.4991 44.8819 31.4579 44.7325 31.4519L38.9148 28.4528C38.4664 28.2212 37.9138 28.3958 37.6814 28.8413C37.449 29.2868 37.6235 29.8359 38.0724 30.0669L43.9316 33.0866C43.9493 33.0951 43.9676 33.0999 43.9853 33.1084C44.0298 33.3387 43.9883 33.4987 43.9225 33.7097C43.8779 33.8515 43.8261 34.0176 43.7999 34.2097C43.4156 34.9153 42.5458 35.2274 41.7998 34.9086L36.8891 32.7878C36.8672 32.7781 36.8446 32.7744 36.822 32.7665C36.7927 32.7562 36.7635 32.7453 36.7342 32.7387C36.7043 32.7314 36.6738 32.7278 36.6439 32.7241C36.6146 32.7205 36.586 32.7156 36.5573 32.7144C36.5262 32.7132 36.4957 32.7156 36.4652 32.7181C36.4371 32.7199 36.4091 32.7205 36.3816 32.7253C36.3511 32.7302 36.3219 32.7381 36.2926 32.7459C36.2657 32.7532 36.2383 32.7593 36.2121 32.769C36.184 32.7793 36.1578 32.7926 36.1309 32.8053C36.1047 32.8181 36.0785 32.8296 36.0535 32.8447C36.0285 32.8593 36.0059 32.8775 35.9827 32.8944C35.9583 32.912 35.9345 32.9296 35.912 32.9496C35.8906 32.969 35.8717 32.9908 35.8522 33.012C35.8315 33.0351 35.8101 33.0569 35.7918 33.0817C35.7741 33.1054 35.7601 33.1314 35.7442 33.1569C35.7314 33.1781 35.7168 33.1963 35.7058 33.2187C35.7021 33.226 35.7009 33.2339 35.6973 33.2411C35.6942 33.2478 35.6893 33.2533 35.6869 33.2599C35.6778 33.2805 35.6741 33.3011 35.6668 33.3224C35.6558 33.3533 35.6442 33.3842 35.6369 33.4151C35.6302 33.443 35.6271 33.4715 35.6235 33.5C35.6192 33.5303 35.6143 33.5606 35.6137 33.5909C35.6125 33.62 35.6149 33.6491 35.6168 33.6782C35.6186 33.7072 35.6198 33.7363 35.6241 33.7654C35.629 33.7945 35.6369 33.823 35.6442 33.8515C35.6515 33.8794 35.6582 33.9067 35.668 33.9339C35.6784 33.9612 35.6912 33.9879 35.704 34.014C35.7162 34.04 35.7284 34.0661 35.743 34.0903C35.7583 34.1158 35.7766 34.1394 35.7943 34.1631C35.8113 34.1867 35.8284 34.2097 35.8479 34.2315C35.8681 34.254 35.8912 34.2734 35.9144 34.294C35.9364 34.3134 35.9571 34.3334 35.9809 34.351C36.0059 34.3691 36.0334 34.3849 36.0608 34.4007C36.0803 34.4128 36.098 34.4267 36.1187 34.437L37.4277 35.0813C38.2042 35.448 38.5372 36.3742 38.1694 37.147C37.9889 37.5264 37.6711 37.8131 37.2746 37.9538C36.8836 38.0926 36.4634 38.0714 36.0889 37.8944L32.4078 36.1663L33.4569 34.3976C34.467 32.7011 33.8985 30.5008 32.1907 29.4935C32.1901 29.4935 32.1894 29.4929 32.1894 29.4929C31.427 29.0455 30.5651 28.9092 29.7539 29.0431C29.9204 27.4229 29.1769 25.7876 27.7051 24.9178C27.7039 24.9166 27.702 24.916 27.7002 24.9148C26.2382 24.0614 24.4656 24.1826 23.1244 25.07C22.8578 24.282 22.3204 23.5801 21.5452 23.1225C19.8245 22.1187 17.6043 22.6843 16.5961 24.382L14.1428 28.5079L8.13849 24.2396C8.11714 24.2244 8.09335 24.2141 8.07079 24.2014C8.04883 24.1887 8.02931 24.1729 8.00613 24.162L1.51565 21.0295C1.06185 20.8107 0.5135 20.998 0.293308 21.4502C0.0725061 21.9018 0.262201 22.446 0.716614 22.6655L7.13756 25.7652L13.2956 30.1432C12.8241 31.6895 13.4542 33.4181 14.9187 34.2764C15.4939 34.6128 16.1252 34.7728 16.7486 34.7728C16.9492 34.7728 17.1481 34.7504 17.3451 34.7177C17.1719 36.3518 17.9221 38.0016 19.4085 38.8757C20.0655 39.26 20.798 39.4563 21.5446 39.4563C21.9246 39.4563 22.3082 39.4054 22.687 39.3024C23.153 39.1757 23.5867 38.9727 23.9789 38.7102C24.2485 39.4933 24.7877 40.1898 25.5605 40.645C26.1345 40.9808 26.7652 41.1408 27.3879 41.1408C28.6225 41.1408 29.8277 40.5128 30.5017 39.3842L31.4758 37.741L35.3057 39.5394C35.765 39.7564 36.2572 39.8661 36.7513 39.8661C37.1343 39.8661 37.5186 39.8006 37.8907 39.6685C38.7482 39.3648 39.4357 38.746 39.8248 37.9259C40.0944 37.3592 40.1865 36.7555 40.1316 36.173L41.0746 36.5803C41.5083 36.7664 41.9615 36.8536 42.4073 36.8536C43.7224 36.8536 44.9795 36.0905 45.5376 34.8177C45.5882 34.7031 45.6138 34.5837 45.6138 34.4588C45.6163 34.4255 45.648 34.3261 45.6706 34.2534C45.7377 34.0382 45.8279 33.7503 45.8395 33.3775C46.9374 33.2254 47.9426 32.5441 48.4538 31.4743C48.9137 30.5069 48.9765 29.2898 48.6185 28.2976C48.4965 27.9606 48.3251 27.669 48.1226 27.4114L51.8317 25.8149C51.8384 25.8119 51.8439 25.8076 51.8506 25.804C51.8561 25.8016 51.8622 25.801 51.8677 25.7979L58.3581 22.6649C58.812 22.4436 59.0016 21.8999 58.7808 21.4484ZM15.8477 32.7078C14.9998 32.2113 14.7144 31.1245 15.2109 30.2869L18.1716 25.3064C18.5022 24.7505 19.0969 24.442 19.7074 24.442C20.0167 24.442 20.3302 24.5214 20.615 24.6875C21.4574 25.1851 21.7392 26.2701 21.2427 27.1059L18.2832 32.0871C17.7855 32.9247 16.6918 33.2023 15.8477 32.7078ZM22.2039 37.5464C21.5604 37.721 20.898 37.6355 20.3375 37.3076C19.1646 36.6179 18.7925 35.071 19.5067 33.8606L23.3397 27.4199C23.8203 26.6071 24.6761 26.1513 25.5453 26.1513C25.9649 26.1513 26.387 26.2574 26.7713 26.481C27.9369 27.1714 28.3022 28.7128 27.5855 29.9172L23.7551 36.3572C23.4062 36.947 22.8554 37.3695 22.2039 37.5464ZM28.9262 38.4568C28.4273 39.2927 27.333 39.5703 26.4907 39.0769C25.6416 38.5775 25.3562 37.4907 25.8551 36.6536L28.8134 31.6731C29.1446 31.1179 29.7381 30.81 30.348 30.81C30.6585 30.81 30.9726 30.89 31.2593 31.0579C32.0998 31.5549 32.3804 32.6374 31.8826 33.4733L30.6414 35.5668C30.384 35.6299 30.1553 35.7996 30.0333 36.0566C29.9369 36.2596 29.9265 36.4791 29.9814 36.6803L28.9262 38.4568Z" fill="white"/>
</svg>
