<svg width="53" height="37" viewBox="0 0 53 37" fill="none" xmlns="http://www.w3.org/2000/svg">
<path d="M52.4397 1.73465C52.4397 1.26468 52.0565 0.884277 51.5843 0.884277H28.9981H26.4281H1.04602C0.573298 0.884277 0.190674 1.26468 0.190674 1.73465V16.4058C0.190674 16.4466 0.196946 16.4858 0.202649 16.5249C0.196946 16.564 0.190674 16.6031 0.190674 16.6439V35.36C0.190674 35.8294 0.573298 36.2104 1.04602 36.2104H26.4281H51.5843C52.0565 36.2104 52.4397 35.8294 52.4397 35.36V16.5555C52.4397 16.53 52.4345 16.5056 52.4322 16.4807C52.4345 16.4557 52.4397 16.4313 52.4397 16.4058V1.73465ZM28.9981 2.58502H50.729V15.5555H43.8737L39.7429 8.63513C39.5884 8.37718 39.309 8.21901 39.0073 8.21901C38.7057 8.21901 38.4257 8.37718 38.2717 8.63513L34.1399 15.5555H28.9981H27.2834V2.58502H28.9981ZM1.90136 2.58502H25.5727V15.5555H18.491L14.3586 8.63513C14.2041 8.37662 13.9246 8.21901 13.623 8.21901C13.3208 8.21901 13.0414 8.37718 12.8874 8.63513L8.75723 15.5555H1.90136V2.58502ZM1.90136 17.2562H9.24421C9.54586 17.2562 9.82584 17.098 9.9798 16.8401L13.6236 10.7355L17.2685 16.8401C17.423 17.098 17.7024 17.2562 18.0041 17.2562H25.5727V34.5102H1.90136V17.2562ZM27.2834 34.5102V17.2562H28.9981H34.6263C34.9279 17.2562 35.2079 17.098 35.3619 16.8401L39.0073 10.7355L42.6511 16.8401C42.8056 17.098 43.085 17.2562 43.3867 17.2562H50.7295V34.5102H27.2834Z" fill="white"/>
<path d="M42.1053 22.0828H35.9086C35.4365 22.0828 35.0533 22.4637 35.0533 22.9331V29.4192C35.0533 29.8886 35.4365 30.2696 35.9086 30.2696H42.1053C42.5775 30.2696 42.9607 29.8886 42.9607 29.4192V22.9331C42.9607 22.4637 42.578 22.0828 42.1053 22.0828ZM41.25 28.5694H36.764V23.7841H41.25V28.5694Z" fill="white"/>
<path d="M16.8362 22.0815H10.6378C10.1651 22.0815 9.78247 22.4625 9.78247 22.9319V29.4185C9.78247 29.888 10.1651 30.2689 10.6378 30.2689H16.8362C17.3089 30.2689 17.6916 29.888 17.6916 29.4185V22.9319C17.6916 22.4625 17.3089 22.0815 16.8362 22.0815ZM15.9809 28.5687H11.4932V23.7829H15.9809V28.5687Z" fill="white"/>
</svg>
