<svg width="49" height="39" viewBox="0 0 49 39" fill="none" xmlns="http://www.w3.org/2000/svg">
<path d="M35.0712 13.8031C35.0738 13.8031 35.0764 13.8031 35.0795 13.8031C36.1734 13.8031 37.2028 13.3846 37.9783 12.6248C38.7558 11.863 39.1846 10.8491 39.1857 9.76971C39.1877 7.54102 37.3462 5.7257 35.08 5.72266C35.079 5.72266 35.0774 5.72266 35.0764 5.72266C33.98 5.72266 32.9485 6.14161 32.1725 6.90244C31.3949 7.66427 30.9661 8.67819 30.9651 9.75551C30.963 10.8359 31.3897 11.8523 32.1663 12.6177C32.9428 13.3821 33.9748 13.8031 35.0712 13.8031ZM33.2653 7.97976C33.7493 7.50551 34.3927 7.2443 35.0759 7.2443C35.0769 7.2443 35.0774 7.2443 35.0785 7.2443C36.4907 7.24582 37.6388 8.37792 37.6377 9.76819C37.6372 10.4408 37.3694 11.0727 36.8854 11.5475C36.402 12.0212 35.7606 12.2819 35.078 12.2819C35.0764 12.2819 35.0743 12.2819 35.0728 12.2819C34.3891 12.2819 33.7462 12.0197 33.2622 11.5429C32.7777 11.0662 32.5115 10.4321 32.513 9.75754C32.5135 9.08599 32.7803 8.45451 33.2653 7.97976Z" fill="white"/>
<path d="M48.5183 37.6882L40.6254 19.5376L43.3157 15.3074C43.3446 15.2628 43.3678 15.2156 43.3854 15.1669C44.3049 13.6676 44.7909 11.9689 44.7909 10.2444C44.795 7.6911 43.7894 5.29045 41.9587 3.48376C40.1275 1.67655 37.6885 0.678862 35.09 0.674805C35.0854 0.674805 35.0818 0.674805 35.0781 0.674805C29.7249 0.674805 25.3638 4.95265 25.3545 10.217C25.3545 11.9684 25.8421 13.6772 26.7663 15.1684C26.7807 15.204 26.7983 15.239 26.8189 15.2724L28.2827 17.6893H9.60329C9.29319 17.6893 9.01301 17.8709 8.89176 18.1514L0.397217 37.6877C0.295053 37.9226 0.31982 38.1924 0.462746 38.406C0.606188 38.619 0.848697 38.7473 1.10875 38.7473H47.8078C48.0679 38.7473 48.3109 38.619 48.4538 38.4054C48.5962 38.1929 48.621 37.9236 48.5183 37.6882ZM28.1511 14.4781C27.3333 13.202 26.9014 11.729 26.9014 10.2191C26.9092 5.79361 30.5757 2.19695 35.0771 2.19695C35.0802 2.19695 35.0838 2.19695 35.0874 2.19695C37.2716 2.2 39.3226 3.03893 40.8617 4.55804C42.4004 6.07663 43.2461 8.09535 43.2425 10.2424C43.2425 10.2429 43.2425 10.2429 43.2425 10.2434C43.2425 11.7366 42.8075 13.2091 41.9845 14.5004C41.9572 14.5436 41.9345 14.5892 41.9169 14.6359L34.9089 25.6561L30.2997 18.0469C30.294 18.0383 30.2894 18.0286 30.2837 18.02L28.2187 14.611C28.2007 14.5654 28.178 14.5207 28.1511 14.4781ZM10.1136 19.2115H11.8989C12.0072 21.3986 13.9143 22.2218 15.3203 22.8243C16.0592 23.1413 16.8229 23.4685 17.0633 23.8712C17.4431 24.5078 17.1985 24.9506 16.456 25.963C15.7795 26.8851 14.9385 28.0329 15.5138 29.5368C16.4065 31.871 21.041 32.4974 26.1218 32.9808C27.0444 33.0685 27.841 33.1441 28.3405 33.2273C32.2769 33.8841 33.5937 36.0809 34.0204 37.2262H2.28105L10.1136 19.2115ZM35.6442 37.2262C35.2918 35.913 33.8883 32.6095 28.599 31.7275C28.0449 31.6352 27.2224 31.557 26.2704 31.4663C23.4527 31.1984 17.5896 30.641 16.9627 29.0012C16.6928 28.2962 17.0716 27.7255 17.7114 26.8526C18.3919 25.9244 19.3238 24.6539 18.3981 23.1013C17.9028 22.271 16.9039 21.8429 15.9379 21.429C14.4664 20.7985 13.5526 20.3141 13.4551 19.2109H29.2032L34.2273 27.5054C34.3656 27.7332 34.6143 27.8742 34.8836 27.8767C34.8867 27.8767 34.8893 27.8767 34.8924 27.8767C35.1592 27.8767 35.4073 27.7418 35.5482 27.5191L39.6249 21.1084L46.6335 37.2252H35.6442V37.2262Z" fill="white"/>
</svg>
