<svg width="41" height="58" viewBox="0 0 41 58" fill="none" xmlns="http://www.w3.org/2000/svg">
<path d="M40.9888 20.7528C41.0603 9.61252 32.0028 0.491095 20.7979 0.419307C9.57793 0.353187 0.417724 9.35308 0.345517 20.4927C0.293578 28.55 5.01809 35.548 11.8753 38.8332L11.9418 56.4325C11.943 56.8103 12.1704 57.1504 12.5201 57.2977C12.6398 57.3487 12.7665 57.3733 12.8919 57.3733C13.1319 57.3733 13.3682 57.2826 13.5487 57.112L20.5706 50.4439L27.6399 57.0654C27.9161 57.3248 28.3227 57.3934 28.6692 57.2442C29.0175 57.0943 29.2424 56.7524 29.2411 56.3746L29.181 38.9617C36.1021 35.7722 40.9368 28.8251 40.9888 20.7528ZM27.3333 54.1832L21.2166 48.4546C20.8492 48.1102 20.2748 48.1121 19.9093 48.459L13.8337 54.2285L13.7786 39.6273C15.8916 40.3867 18.1649 40.8111 20.5363 40.8263C20.5807 40.8263 20.6244 40.8269 20.6687 40.8269C22.9832 40.8269 25.207 40.4346 27.2827 39.7217L27.3333 54.1832ZM20.6687 38.9377C20.6295 38.9377 20.5883 38.9371 20.549 38.9371C10.3912 38.8723 2.18047 30.6041 2.24634 20.5047C2.31158 10.4456 10.5629 2.30782 20.6662 2.30782C20.7055 2.30782 20.7466 2.30782 20.7859 2.30782C30.9431 2.37331 39.1538 10.6415 39.0886 20.7402C39.024 30.7993 30.7721 38.9377 20.6687 38.9377Z" fill="white"/>
<path d="M29.9037 17.7202L24.1271 16.8487L21.5771 11.6259C21.4193 11.3022 21.09 11.0963 20.7289 11.0938C20.727 11.0938 20.7251 11.0938 20.7226 11.0938C20.3635 11.0938 20.0347 11.2953 19.8732 11.6152L17.256 16.8053L11.4712 17.6025C11.1133 17.6522 10.8137 17.8991 10.7003 18.2404C10.5863 18.5817 10.6769 18.9576 10.9347 19.2102L15.0904 23.2901L14.0669 29.0066C14.0035 29.3605 14.1473 29.7195 14.4387 29.933C14.73 30.1464 15.1177 30.176 15.4388 30.011L20.6244 27.3423L25.7784 30.0772C25.919 30.1515 26.0723 30.1886 26.2256 30.1886C26.4207 30.1886 26.6145 30.1288 26.7792 30.0117C27.0731 29.8026 27.2219 29.4456 27.163 29.0904L26.2129 23.3612L30.4212 19.3342C30.6815 19.0848 30.7772 18.7102 30.6682 18.3676C30.5574 18.0257 30.2622 17.7744 29.9037 17.7202ZM24.535 22.3449C24.3102 22.5602 24.205 22.872 24.2563 23.1793L24.9746 27.5098L21.0786 25.4418C20.9386 25.3675 20.7847 25.3304 20.6308 25.3304C20.4807 25.3304 20.3312 25.3656 20.1944 25.4362L16.2749 27.4531L17.0483 23.132C17.1034 22.826 17.0033 22.513 16.7803 22.2945L13.6393 19.2108L18.0123 18.6075C18.322 18.5647 18.5912 18.3733 18.7312 18.0956L20.7093 14.1731L22.6367 18.1207C22.7736 18.4003 23.0402 18.5956 23.3493 18.6422L27.7166 19.3008L24.535 22.3449Z" fill="white"/>
</svg>
