<svg width="250" height="232" viewBox="0 0 250 232" fill="none" xmlns="http://www.w3.org/2000/svg">
<path d="M69.3819 120.569C72.1909 119.538 75.0467 118.694 77.9025 117.898C89.0204 120.177 100.428 120.683 111.704 119.397C97.901 122.774 83.5383 123.173 69.5692 120.569H69.3819ZM56.4138 120.053C54.822 118.694 53.1835 117.382 51.7322 115.977L56.9289 111.712C61.0239 113.282 65.1958 114.643 69.4288 115.789C65.1217 117.007 60.8145 118.413 56.5542 120.053H56.4138ZM111.704 112.368C100.557 111.074 89.2762 111.548 78.2772 113.774C75.4214 112.978 72.6591 112.087 69.8501 111.103C83.7367 108.596 97.9939 109.027 111.704 112.368ZM87.0318 115.836C98.1132 113.674 109.425 112.934 120.693 113.634C88.2959 88.7983 54.073 54.4973 23.6891 57.4026L74.5786 97.7015C89.0543 99.5346 102.972 104.439 115.403 112.087C100.454 106.455 84.5517 103.797 68.5861 104.262L24.7191 67.6179C20.1843 67.8969 15.7475 69.0588 11.6573 71.0386L50.6086 102.903L43.2584 109.088L11.7977 82.8003C7.67058 83.6815 3.69548 85.1656 0 87.205L34.691 116.211L0.0935815 144.748C3.83085 146.779 7.83339 148.278 11.985 149.2C22.2846 140.546 32.6466 131.877 43.0711 123.193L50.3744 129.378C50.9362 129.05 11.7977 160.915 11.7977 160.915C15.9044 162.895 20.3565 164.056 24.9063 164.335L68.7734 127.691C84.7464 128.205 100.662 125.529 115.59 119.819C103.178 127.514 89.253 132.437 74.7659 134.252L23.5018 174.551C53.8857 177.222 88.1554 142.968 120.552 118.32C109.156 119.035 97.7145 118.263 86.5168 116.023L87.0318 115.836ZM66.3857 164.71V231.25C70.3093 229.599 73.9566 227.355 77.2003 224.596V165.132C93.6943 155.638 107.652 142.295 117.884 126.239C110.655 141.454 99.9786 154.772 86.7041 165.132L86.0019 232C90.1034 229.951 93.7869 227.154 96.8633 223.753V165.788C107.44 153.409 115.502 139.083 120.599 123.615C118.543 138.339 113.458 152.475 105.665 165.132L103.979 231.016C125.234 208.57 120.927 159.743 122.706 118.554C108.622 138.86 89.1697 154.842 66.5262 164.71H66.3857ZM105.805 67.0556C113.591 79.7156 118.675 93.8509 120.74 108.573C115.648 93.1016 107.585 78.7754 97.0038 66.3995V8.2472C93.9531 4.81782 90.2638 2.01653 86.1423 0L86.8445 66.8213C100.108 77.1925 110.782 90.5071 118.024 105.714C107.805 89.6477 93.8449 76.3017 77.3408 66.8213V7.59117C74.074 4.87712 70.4312 2.65156 66.5262 0.984004V67.5241C89.1573 77.3904 108.607 93.3534 122.706 113.634C120.927 72.257 125.234 23.3828 103.979 1.17148L105.805 67.0556ZM193.446 111.947C195.131 113.259 196.723 114.618 198.127 115.977L192.884 120.288C188.79 118.688 184.618 117.296 180.384 116.117C184.752 114.975 189.05 113.583 193.258 111.947H193.446ZM171.629 114.055C160.493 111.792 149.07 111.302 137.781 112.603C151.66 109.2 166.104 108.8 180.15 111.431C177.341 112.368 174.485 113.306 171.629 114.055ZM138.109 119.632C149.258 120.911 160.539 120.421 171.536 118.179C174.345 119.022 177.2 119.866 179.963 120.85C166.083 123.419 151.816 123.004 138.109 119.632ZM225.187 164.57C229.756 164.314 234.228 163.151 238.343 161.149L199.298 129.285L206.742 123.146C217.182 131.862 227.715 140.625 238.155 149.434C242.29 148.505 246.276 147.007 250 144.982L215.449 115.742L249.766 86.9707C246.043 84.9189 242.035 83.4343 237.875 82.566C227.575 91.2349 217.182 99.857 206.835 108.526L199.532 102.341C198.923 102.669 238.062 70.8043 238.062 70.8043C233.972 68.8246 229.535 67.6626 225 67.3835C210.393 79.6294 195.771 91.8441 181.133 104.027C165.167 103.555 149.263 106.214 134.316 111.853C146.76 104.197 160.695 99.2924 175.187 97.4672L226.03 57.1683C195.693 54.4973 161.423 88.7983 129.073 113.399C140.436 112.693 151.844 113.449 163.015 115.649C151.97 117.846 140.687 118.602 129.448 117.898C161.798 142.733 196.067 176.987 226.404 174.129L175.468 133.83C160.996 132.016 147.086 127.093 134.691 119.397C149.616 125.12 165.534 127.796 181.507 127.27L225.374 163.914L225.187 164.57ZM125.889 117.898C127.575 159.321 123.315 208.149 144.616 230.36L142.884 164.757C135.152 152.075 130.086 137.948 127.996 123.24C133.096 138.698 141.14 153.02 151.685 165.413V223.753C154.78 227.134 158.46 229.928 162.547 232L161.891 165.132C148.603 154.785 137.924 141.465 130.712 126.239C140.931 142.305 154.891 155.651 171.395 165.132V224.362C174.651 227.115 178.316 229.344 182.257 230.969V164.71C159.578 154.9 140.111 138.906 126.077 118.554L125.889 117.898ZM182.257 67.7116V0.984004C178.335 2.64754 174.676 4.87325 171.395 7.59117V66.8213C154.876 76.2821 140.912 89.6321 130.712 105.714C137.938 90.497 148.614 77.1789 161.891 66.8213L162.547 0C158.448 2.05352 154.765 4.84983 151.685 8.2472V66.3058C141.136 78.6959 133.09 93.0188 127.996 108.479C130.086 93.7707 135.152 79.6435 142.884 66.9618L144.616 1.12458C123.408 23.5233 127.668 72.3975 125.889 113.587C139.962 93.2706 159.418 77.2862 182.069 67.4304" fill="white" fill-opacity="0.2"/>
</svg>
