<svg width="90" height="84" viewBox="0 0 90 84" fill="none" xmlns="http://www.w3.org/2000/svg">
<path d="M84.9 40.6C84.7 40 84.1 39.6 83.5 39.6H55.1C54.5 39.6 53.9 40 53.7 40.6L52.5 44V19H55.6C56.4 19 57.1 18.3 57.1 17.5V9.49999C57.1 8.69999 56.4 7.99999 55.6 7.99999H51.2V2.39999C51.2 1.59999 50.5 0.899994 49.7 0.899994H8.30002C7.50002 0.899994 6.80002 1.59999 6.80002 2.39999V7.99999H2.40002C1.60002 7.99999 0.900024 8.69999 0.900024 9.49999V17.5C0.900024 18.3 1.60002 19 2.40002 19H5.20002V81.7C5.20002 82.5 5.90002 83.2 6.70002 83.2H51H87.5C88.3 83.2 89 82.5 89 81.7V53.5C89.2 53 84.9 40.6 84.9 40.6ZM64.7 42.6H73.9H64.7ZM52.8 52.6L56.1 42.6H82.3L85.9 52.6H52.8ZM9.80002 3.79999H48.2V7.89999H9.80002V3.79999ZM3.90002 10.9H8.30002H49.7H54.1V15.9H51H6.70002H3.90002V10.9ZM8.20002 19H49.5V80.2H8.20002V19ZM86 55.7V80.2H52.5V55.8" fill="black"/>
<path d="M35.6 26.7H22.4C21.6 26.7 20.9 27.4 20.9 28.2V60.1C20.9 60.9 21.6 61.6 22.4 61.6H35.6C36.4 61.6 37.1 60.9 37.1 60.1V28.2C37.1 27.4 36.4 26.7 35.6 26.7ZM34.1 58.6H23.9V29.7H34.1V58.6V58.6Z" fill="black"/>
<path d="M71.0055 45.6517L70.6545 46.4146H65.68L65.9547 45.6517H71.0055ZM70.3493 47.1776L69.9984 47.9406H65.68L65.9547 47.1776H70.3493ZM71.9058 43.5917L71.5395 44.3852C71.3768 44.2377 71.2051 44.1105 71.0245 44.0037C70.844 43.8969 70.6545 43.8142 70.4561 43.7557C70.2578 43.6972 70.0492 43.668 69.8305 43.668C69.3982 43.668 69.0091 43.7875 68.6632 44.0266C68.3173 44.2656 68.0439 44.6179 67.843 45.0833C67.6421 45.5487 67.5416 46.1196 67.5416 46.7961C67.5416 47.4726 67.6421 48.0436 67.843 48.509C68.0439 48.9744 68.3173 49.3266 68.6632 49.5657C69.0091 49.8047 69.3982 49.9243 69.8305 49.9243C70.0543 49.9243 70.2654 49.895 70.4638 49.8365C70.6647 49.778 70.8516 49.6979 71.0245 49.5962C71.2 49.4945 71.3615 49.38 71.509 49.2529L71.8905 50.0463C71.6235 50.2981 71.3107 50.4889 70.9521 50.6186C70.5935 50.7457 70.2196 50.8093 69.8305 50.8093C69.2049 50.8093 68.6505 50.6465 68.1673 50.321C67.6866 49.9955 67.3089 49.5326 67.0343 48.9324C66.7621 48.3322 66.6261 47.6201 66.6261 46.7961C66.6261 45.9721 66.7621 45.26 67.0343 44.6598C67.3089 44.0596 67.6866 43.5968 68.1673 43.2712C68.6505 42.9457 69.2049 42.7829 69.8305 42.7829C70.2349 42.7829 70.6125 42.8529 70.9635 42.9928C71.317 43.1326 71.6311 43.3323 71.9058 43.5917Z" fill="black"/>
<path d="M76 58.6H62.8C62 58.6 61.3 59.1 61.3 59.7V82.1C61.3 82.7 62 83.2 62.8 83.2H76C76.8 83.2 77.5 82.7 77.5 82.1V59.7C77.5 59.1 76.8 58.6 76 58.6ZM74.5 81.1H64.3V60.7H74.5V81.1Z" fill="black"/>
</svg>
