<svg width="70" height="68" viewBox="0 0 70 68" fill="none" xmlns="http://www.w3.org/2000/svg">
<path d="M68.347 0.15387H1.65295C0.823954 0.15387 0.152954 0.82487 0.152954 1.65387V29.8789C0.152954 30.7079 0.823954 31.3789 1.65295 31.3789H6.79595V66.3459C6.79595 67.1739 7.46695 67.8459 8.29595 67.8459H62.342C63.17 67.8459 63.842 67.1739 63.842 66.3459V31.3789H68.347C69.175 31.3789 69.847 30.7079 69.847 29.8789V1.65387C69.847 0.82487 69.175 0.15387 68.347 0.15387ZM60.842 64.8459H9.79595V31.3789H25.908C26.409 31.3789 26.878 31.1289 27.156 30.7109L35.319 18.4699L43.482 30.7109C43.76 31.1279 44.229 31.3789 44.73 31.3789H60.841V64.8459H60.842ZM66.847 28.3789H45.533L36.567 14.9339C36.01 14.0989 34.627 14.0999 34.071 14.9339L25.105 28.3789H3.15295V3.15387H66.847V28.3789V28.3789Z" fill="#070606"/>
<path d="M42.235 36.3809H28.403C27.574 36.3809 26.903 37.0529 26.903 37.8809V58.6349C26.903 59.4629 27.574 60.1349 28.403 60.1349H42.236C43.064 60.1349 43.736 59.4629 43.736 58.6349V37.8809C43.735 37.0529 43.063 36.3809 42.235 36.3809ZM40.735 57.1349H29.903V39.3809H40.736V57.1349H40.735Z" fill="#070606"/>
</svg>
