<svg width="86" height="76" viewBox="0 0 86 76" fill="none" xmlns="http://www.w3.org/2000/svg">
<path d="M85.406 57.5161C85.215 52.0871 83.524 45.5451 80.644 39.0961C74.314 24.9171 64.859 16.3101 58.655 19.0841L55.049 20.6931V12.1391C55.049 5.34412 43.34 0.219116 27.813 0.219116C12.286 0.219116 0.577026 5.34412 0.577026 12.1391V27.4551C0.577026 27.5361 0.588026 27.6141 0.601026 27.6921C0.589026 27.7701 0.577026 27.8481 0.577026 27.9291C0.577026 28.0671 0.590026 28.2041 0.599026 28.3401C0.588026 28.4121 0.577026 28.4851 0.577026 28.5601V43.8761C0.577026 43.9571 0.588026 44.0351 0.601026 44.1131C0.589026 44.1911 0.577026 44.2691 0.577026 44.3501C0.577026 44.5231 0.590026 44.6941 0.605026 44.8641C0.588026 44.9531 0.577026 45.0451 0.577026 45.1391V60.4531C0.577026 60.5341 0.588026 60.6121 0.601026 60.6901C0.589026 60.7681 0.577026 60.8461 0.577026 60.9271C0.577026 67.7231 12.286 72.8481 27.813 72.8481C37.654 72.8481 46.626 70.6071 51.367 67.0601C55.598 72.5451 60.15 75.7761 63.961 75.7761C64.832 75.7761 65.665 75.6081 66.445 75.2591L80.862 68.8221C84 67.4261 85.614 63.4091 85.406 57.5161ZM27.813 3.22012C42.096 3.22012 52.049 7.92112 52.049 12.1401C52.049 16.3601 42.095 21.0621 27.813 21.0621C13.531 21.0621 3.57703 16.3601 3.57703 12.1401C3.57703 7.92112 13.53 3.22012 27.813 3.22012ZM3.57703 27.4561V17.7501C8.01403 21.5661 16.982 24.0621 27.813 24.0621C38.645 24.0621 47.613 21.5661 52.049 17.7501V22.0331L44.233 25.5211C41.228 26.8651 39.706 30.5621 39.65 35.6261C36.032 36.4151 31.983 36.8511 27.812 36.8511C13.529 36.8511 3.57603 32.1501 3.57603 27.9311C3.57603 27.8501 3.56503 27.7721 3.55203 27.6941C3.56503 27.6151 3.57703 27.5371 3.57703 27.4561ZM3.57703 43.8781V33.5401C8.01403 37.3551 16.982 39.8511 27.813 39.8511C31.993 39.8511 36.09 39.4501 39.782 38.6881C40.122 42.3981 41.117 46.6331 42.767 51.1061C38.335 52.5391 33.317 53.2721 27.813 53.2721C13.53 53.2721 3.57703 48.5711 3.57703 44.3521C3.57703 44.2711 3.56603 44.1931 3.55303 44.1151C3.56503 44.0371 3.57703 43.9591 3.57703 43.8781ZM27.813 69.8511C13.53 69.8511 3.57703 65.1491 3.57703 60.9301C3.57703 60.8491 3.56603 60.7711 3.55303 60.6931C3.56503 60.6151 3.57703 60.5371 3.57703 60.4561V49.9611C8.01403 53.7761 16.982 56.2721 27.813 56.2721C33.705 56.2721 39.093 55.4681 43.869 53.8991C44.058 54.3491 44.254 54.8001 44.456 55.2521C46.019 58.7531 47.776 61.8981 49.624 64.6321C45.488 67.7831 36.971 69.8511 27.813 69.8511ZM65.223 72.5231C61.369 74.2431 53.019 67.0711 47.196 54.0291C41.373 40.9871 41.607 29.9811 45.455 28.2611L54.774 24.1021C54.258 25.8451 54.027 27.9561 54.113 30.3941C54.304 35.8241 55.995 42.3661 58.875 48.8161C63.294 58.7131 69.232 65.8781 74.528 68.3701L65.223 72.5231ZM79.64 66.0871C75.789 67.8031 67.437 60.6351 61.614 47.5931C58.888 41.4871 57.289 35.3411 57.111 30.2881C56.952 25.7651 57.961 22.6801 59.879 21.8231C60.258 21.6541 60.68 21.5711 61.14 21.5711C65.351 21.5711 72.657 28.5591 77.907 40.3191C80.633 46.4241 82.232 52.5691 82.41 57.6221C82.567 62.1451 81.558 65.2301 79.64 66.0871Z" fill="#0B0B0B"/>
</svg>
